PathFileType	4	(X/Y/Z)	27_1_33_p1_0-229.trc
DataRate	CameraRate	NumFrames	NumMarkers	Units	OrigDataRate	OrigDataStartFrame	OrigNumFrames
59.0	59.0	5	27	m	59.0	201	230
Frame#	Time	RHip			RKnee			RAnkle			RBigToe			RSmallToe			RHeel			LHip			LKnee			LAnkle			LBigToe			LSmallToe			LHeel			Neck			Head			Nose			RShoulder			RElbow			RWrist			RThumb			RIndex			RPinky			LShoulder			LElbow			LWrist			LThumb			LIndex			LPinky			
		X1	Y1	Z1	X2	Y2	Z2	X3	Y3	Z3	X4	Y4	Z4	X5	Y5	Z5	X6	Y6	Z6	X7	Y7	Z7	X8	Y8	Z8	X9	Y9	Z9	X10	Y10	Z10	X11	Y11	Z11	X12	Y12	Z12	X13	Y13	Z13	X14	Y14	Z14	X15	Y15	Z15	X16	Y16	Z16	X17	Y17	Z17	X18	Y18	Z18	X19	Y19	Z19	X20	Y20	Z20	X21	Y21	Z21	X22	Y22	Z22	X23	Y23	Z23	X24	Y24	Z24	X25	Y25	Z25	X26	Y26	Z26	X27	Y27	Z27	
201	3.406779661016949	0.14495320841223547	0.6830704083439887	1.0759598057767634	0.14473018727472386	0.7146615130948208	1.4458246528038592	0.1594727322779899	0.824363050959343	1.8528849438140411	0.12587592718928428	0.5945870447438343	1.8416031279251783	0.18108025933951705	0.6012823756919701	1.8244043468678577	0.15399695212280795	0.8999170321223935	1.911620115470207	-0.047788620474456166	0.679985352598224	1.0795797887084917	-0.03938114816519017	0.7584957569975957	1.4641868119136028	-0.034864810173265474	0.7994445266356335	1.842469516017064	-0.031072406419975305	0.5945422840296881	1.8263877215606348	-0.08183124708722218	0.6511707940378175	1.8399400235960595	-0.018713228818048117	0.8488425506022483	1.8918506570684306	0.04582708657633913	0.5780999413250083	0.4914128502395511	0.04282265156616296	0.5224510329409942	0.24618232167305587	0.04861117820849024	0.43455625599766146	0.38260822840134123	0.1830129031337659	0.5946822038577999	0.5804694196706642	0.2688430191623873	0.6758093551400254	0.8258388808646313	0.22781640665640301	0.4973695861521263	0.9130107238059754	0.1203804390157782	0.4716142802242485	0.9331639968963668	0.1321001138201391	0.4549784069078942	0.9739875110779573	0.16423702505851265	0.4540303265222948	1.002193019191003	-0.10528518510112647	0.6412421826319757	0.5873525065622951	-0.1874052845799547	0.6862547981262892	0.8097447817759649	-0.10864652197026417	0.532150307979057	0.9437637803967575	-0.01881501219465499	0.5014832289818955	0.9597734322243906	-0.00513456123707684	0.4630942799791198	0.9888873984384038	-0.03716573660071634	0.5288707638427171	1.0444788898589
202	3.4237288135593222	0.14069327631437206	0.6825702397317904	1.075463653052888	0.15171355811228393	0.7298295187745457	1.4512069342915312	0.15940909022720345	0.824311715884515	1.8528975822457752	0.1306459332415821	0.6078476251871674	1.8484598939256238	0.1811623195576859	0.6012551354752346	1.8243263534181973	0.1524884958152446	0.897353256475284	1.9052320281206327	-0.048092797391757494	0.6794005905297285	1.079607286045008	-0.040459753047562476	0.756341324031068	1.4587126407617228	-0.03500260197731767	0.7993814473873473	1.8425359615527568	-0.03114339763771956	0.5944365769103076	1.8265028076514165	-0.07847209359376023	0.6379688587320655	1.8289680428146153	-0.01903949561458805	0.84849469490908	1.8918018059251405	0.04571915919249315	0.5780379738146184	0.49137656231528276	0.042733095963660254	0.522484412551299	0.2461334234502157	0.0485667071291052	0.43456638175493806	0.3826396754017023	0.17849276145751525	0.5939672574435271	0.5803856837497698	0.26813796853086075	0.6745220874387569	0.8216356800957266	0.22199255885146307	0.4864242617832214	0.9148052240374326	0.10897770097430735	0.4693029374443531	0.9437319461892373	0.10756504165533205	0.456107922013876	0.9796893472467537	0.15199714527212121	0.45294332267233195	1.0066267813909933	-0.10529406151691284	0.6409485971676895	0.5873277795603418	-0.18732312022601538	0.6851074273063761	0.8095962767919989	-0.1038603961118235	0.5329962604876984	0.9440658340607605	-0.018400041548401667	0.5010883242220575	0.9631198933777249	-0.0007053406366149748	0.47458295779306203	0.9914705584610283	-0.015089394044600957	0.5072164687364857	1.0465034831629192
203	3.440677966101695	0.14083018144777923	0.6828344122889849	1.0756228476643994	0.14609115499639083	0.7151664007938722	1.4544318139117824	0.16199824640250568	0.8066519956015202	1.844085685551365	0.12581236512997301	0.5947389458575145	1.841608657027508	0.18103209324160274	0.6010617515674095	1.8242141657074158	0.15254061894104595	0.8974046324690038	1.905309160464526	-0.05340522666321513	0.6891666409715386	1.0778436373839726	-0.04479483674657383	0.7549877466753867	1.458238732933907	-0.03484962669324533	0.7992827277006401	1.8424141249277675	-0.03606094163132285	0.5934121334114102	1.826211998816281	-0.08236058133307793	0.6529737879477417	1.8369685687304103	-0.018217648791452823	0.8493458485852805	1.891776143444612	0.04560893195367932	0.5782228697114274	0.4913061212160717	0.04273082446175311	0.5224122619445271	0.24615167466767315	0.04599863503931537	0.4464069850177922	0.38319014761466796	0.17847013525986863	0.5937711457221837	0.580400726285254	0.26824470864517014	0.6748371086573226	0.8221645592115969	0.20651044310390754	0.4972854382847698	0.9219015328218535	0.09396883417198418	0.4594373655121873	0.9534304046541825	0.08815166297628156	0.416266797517847	0.9798242444804289	0.1327785158840727	0.46296101965960357	1.0149250305136364	-0.10535797850494114	0.6409371948591961	0.5873197703848431	-0.1867199322553943	0.6863205689582147	0.8135981100512989	-0.09629788824516164	0.5096603910235034	0.9428122228069793	-0.014924866807932351	0.4874651979019263	0.9608499722376073	0.0035968398995665624	0.4851084720598042	0.9940665668018972	-0.006308690364300789	0.4963532211584203	1.0468468161495899
204	3.457627118644068	0.143120566607421	0.6686803262928755	1.067745058765986	0.14553361574065457	0.7128715491779813	1.4451195366282141	0.15931670958926766	0.8243598587211779	1.8529548243365392	0.12596432683664682	0.5971094515986206	1.8374548309911363	0.17821186642708708	0.6170452031274212	1.8361958504168308	0.1524928092145039	0.8975740007628789	1.905396637570083	-0.05778981110984739	0.6756735499965693	1.074970727083961	-0.04464060883707211	0.7536227927278973	1.4619329684446114	-0.030231475351509746	0.8135548415316394	1.8494537778119784	-0.03610678698976643	0.593666742596529	1.8266625339484241	-0.08214260708806113	0.6524649288843462	1.841291084396063	-0.016564310566843998	0.8527059742393652	1.8975018822989949	0.045399577800925545	0.5783563856049738	0.4912677888112817	0.04253670805425682	0.5219960697321913	0.24595365806161226	0.045888614143527295	0.44628679439900093	0.38636710967488264	0.17401987122280177	0.5935250609413302	0.5805901097933289	0.26853436545914794	0.6777932184677166	0.8270282154592661	0.18118846290987028	0.48746775590316965	0.9209088001447472	0.08129322409779072	0.4343379934529789	0.9709184919032451	0.07687692434342762	0.4173805870333917	0.988438928387735	0.11238017085850661	0.46484896218315225	1.0241310292027601	-0.10537983597433978	0.6412228844261388	0.5872449107445366	-0.1867459641572503	0.6865168788670564	0.8137285479349531	-0.09617154444817858	0.5099479473400333	0.9430791230231618	-0.011309310489597291	0.4878345697535826	0.9602223448588868	0.0037573362886606535	0.4855272685794412	0.9938831901546075	0.0013647220016921888	0.5067759381235997	1.0443961046714474
205	3.4745762711864407	0.14129166577179927	0.6647627648008708	1.0623463137061768	0.14492470714057934	0.7134693314667658	1.44953569004116	0.15926011438240634	0.8242604374434789	1.853046482315516	0.13054924859850506	0.6102012263350024	1.8446265794187724	0.17817470048405118	0.6172039873958262	1.8364403293100182	0.15237894596517867	0.8975386591258218	1.9056547865501263	-0.06291400791474705	0.6729439506733876	1.0696119481530937	-0.045857511897664543	0.7516752262439385	1.4564310162629852	-0.030244755886949196	0.8135814911160297	1.849454410632411	-0.03616295844208303	0.5935397231262398	1.8266507708618496	-0.08220584882819963	0.652230536977991	1.841189732343917	-0.013724826057442258	0.8636283766842252	1.899002114142459	0.04537307237700458	0.5783452509446712	0.49125784740777495	0.04223296260883255	0.5220010812324316	0.24246917861660472	0.04585189013428547	0.44633905609011154	0.3863469467833045	0.16896374559201896	0.5814645948764804	0.5830924213331663	0.2672323177225006	0.676153373425116	0.8187601793669016	0.1717001863582831	0.503266090425722	0.9246495374502115	0.06694045097067418	0.43620504338176225	0.9718813604838459	0.06416672265056246	0.43029743043755336	1.0058047521936795	0.10563120055032481	0.4764147627235808	1.0314177487021174	-0.10521956213664428	0.641250240976559	0.5836945055519361	-0.1866543923764369	0.686292005010187	0.8137395415989742	-0.09903976340885626	0.522774699599813	0.9458980672748408	-0.017377485381322697	0.5139260770125531	0.9650926989540345	0.004119599328065471	0.486783244219504	0.9943307484626651	0.00313316056980264	0.5063177526454297	1.0370009147555208
